<svg width="120" height="120" viewBox="0 0 120 120" fill="none" xmlns="http://www.w3.org/2000/svg">
<path d="M0 60H60V4.76838e-07H19.162C8.57912 4.76838e-07 0 8.57912 0 19.162V60Z" fill="#3EBFFF"/>
<path d="M20 64C20 72.8366 27.1634 80 36 80H57.8462C70.0814 80 80 70.0814 80 57.8462V36C80 27.1634 72.8366 20 64 20H20V64Z" fill="#FFD53C"/>
<path d="M110 66C110 57.1634 102.837 50 94 50L66 50C57.1634 50 50 57.1634 50 66L50 94C50 102.837 57.1634 110 66 110L110 110L110 66Z" fill="white"/>
<path d="M70 70V90H90V70H70Z" fill="#FF913C"/>
</svg>
