<svg width="65" height="26" viewBox="0 0 65 26" fill="none" xmlns="http://www.w3.org/2000/svg">
<g clip-path="url(#clip0_1100_105)">
<mask id="mask0_1100_105" style="mask-type:luminance" maskUnits="userSpaceOnUse" x="0" y="0" width="65" height="26">
<path d="M64.5908 0.5H0.196777V25.5H64.5908V0.5Z" fill="white"/>
</mask>
<g mask="url(#mask0_1100_105)">
<path d="M3.56907 5.91797H0.720703V19.8749H3.56907V5.91797Z" fill="white"/>
<path d="M9.74241 0.600586H6.89404V11.2345H9.74241V0.600586Z" fill="white"/>
<path d="M9.74192 14.5596H6.89355V25.1934H9.74192V14.5596Z" fill="#31D891"/>
<path d="M15.9123 5.91797H13.064V19.8749H15.9123V5.91797Z" fill="#31D891"/>
<path d="M31.9961 19.8661V13.6681H24.8737V19.8661H22.9453V5.91504H24.8737V11.8775H31.9961V5.91504H33.9256V19.8661H31.9961Z" fill="white"/>
<path d="M44.3193 17.1697C43.7882 18.8424 42.2723 20.1604 40.0705 20.1604C37.5325 20.1604 35.3086 18.3112 35.3086 15.1039C35.3086 12.1326 37.4532 10.1055 39.834 10.1055C42.7468 10.1055 44.3797 12.1123 44.3797 15.0647C44.3807 15.2621 44.3676 15.4593 44.3405 15.6548H37.2148C37.2541 17.3468 38.4744 18.5298 40.0677 18.5298C41.6024 18.5298 42.37 17.6839 42.7241 16.6207L44.3193 17.1697ZM42.4484 14.1593C42.4092 12.8015 41.5241 11.7393 39.8519 11.7393C38.2978 11.7393 37.3531 12.9394 37.2738 14.1593H42.4484Z" fill="white"/>
<path d="M48.1666 14.4549L50.7244 14.0814C51.2956 14.0022 51.4528 13.7071 51.4528 13.3733C51.4528 12.449 50.8429 11.6814 49.4068 11.6814C48.1081 11.6814 47.3797 12.4882 47.2611 13.5905L45.4908 13.177C45.6872 11.3665 47.3207 10.1084 49.3671 10.1084C52.1996 10.1084 53.3024 11.722 53.3024 13.5716V18.3118C53.2963 18.8323 53.3356 19.3523 53.42 19.8659H51.6104C51.5381 19.4435 51.505 19.0151 51.5118 18.5866C51.0988 19.2564 50.1541 20.161 48.4621 20.161C46.5337 20.161 45.2935 18.8231 45.2935 17.3285C45.2935 15.6356 46.5337 14.6909 48.1666 14.4549ZM51.4528 15.8126V15.3801L48.5598 15.8126C47.7729 15.9311 47.1828 16.3829 47.1828 17.2289C47.1828 17.937 47.7728 18.6059 48.7175 18.6059C50.2325 18.6069 51.4528 17.8785 51.4528 15.8126Z" fill="white"/>
<path d="M55.0469 23.6055V10.4018H56.8376V11.878C57.3493 10.9338 58.471 10.1855 60.0057 10.1855C62.8382 10.1855 64.3546 12.3699 64.3546 15.1245C64.3546 17.9386 62.7207 20.1224 59.9467 20.1224C58.4903 20.1224 57.389 19.4341 56.8782 18.5872V23.6055H55.0469ZM59.671 11.819C57.979 11.819 56.8574 13.2352 56.8574 15.1235C56.8574 17.0714 57.979 18.4687 59.671 18.4687C61.3833 18.4687 62.4653 17.0714 62.4653 15.1235C62.4653 13.2352 61.4031 11.819 59.671 11.819Z" fill="white"/>
</g>
</g>
<defs>
<clipPath id="clip0_1100_105">
<rect width="65" height="26" fill="white"/>
</clipPath>
</defs>
</svg>
