<svg width="120" height="120" viewBox="0 0 120 120" fill="none" xmlns="http://www.w3.org/2000/svg">
<path d="M54.8655 4.96711C57.7283 2.19763 62.2717 2.19763 65.1345 4.96711L72.2384 11.8394C73.8754 13.4231 76.1517 14.1627 78.4071 13.8437L88.1936 12.4595C92.1376 11.9016 95.8132 14.5722 96.5014 18.4954L98.2091 28.2308C98.6027 30.4743 100.01 32.4106 102.022 33.4782L110.753 38.1107C114.271 39.9776 115.675 44.2986 113.926 47.8771L109.585 56.7569C108.585 58.8033 108.585 61.1967 109.585 63.2431L113.926 72.1229C115.675 75.7014 114.271 80.0224 110.753 81.8893L102.022 86.5218C100.01 87.5894 98.6027 89.5257 98.2091 91.7692L96.5014 101.505C95.8132 105.428 92.1376 108.098 88.1936 107.541L78.4071 106.156C76.1517 105.837 73.8754 106.577 72.2384 108.161L65.1345 115.033C62.2717 117.802 57.7283 117.802 54.8655 115.033L47.7616 108.161C46.1246 106.577 43.8483 105.837 41.5929 106.156L31.8064 107.541C27.8624 108.098 24.1868 105.428 23.4986 101.505L21.7909 91.7692C21.3973 89.5257 19.9905 87.5894 17.9784 86.5218L9.24725 81.8893C5.72866 80.0224 4.32469 75.7014 6.07397 72.1229L10.4147 63.2431C11.415 61.1967 11.415 58.8033 10.4147 56.7569L6.07397 47.8771C4.32469 44.2986 5.72866 39.9776 9.24725 38.1107L17.9784 33.4782C19.9905 32.4106 21.3973 30.4743 21.7909 28.2308L23.4986 18.4954C24.1868 14.5722 27.8624 11.9016 31.8064 12.4595L41.5929 13.8437C43.8483 14.1627 46.1246 13.4231 47.7616 11.8394L54.8655 4.96711Z" fill="#0F8FFF"/>
<path d="M58.6684 21.1907C59.4274 20.5126 60.5746 20.5126 61.3336 21.1907L71.572 30.3392C71.9098 30.641 72.3401 30.8193 72.7924 30.8447L86.501 31.6154C87.5172 31.6725 88.3284 32.4838 88.3856 33.5L89.1563 47.2086C89.1817 47.6609 89.3599 48.0912 89.6618 48.429L98.8102 58.6674C99.4884 59.4264 99.4884 60.5736 98.8102 61.3326L89.6618 71.5711C89.3599 71.9088 89.1817 72.3391 89.1563 72.7914L88.3856 86.5C88.3284 87.5162 87.5172 88.3275 86.501 88.3846L72.7924 89.1553C72.3401 89.1807 71.9098 89.359 71.572 89.6608L61.3336 98.8093C60.5746 99.4874 59.4274 99.4874 58.6684 98.8093L48.4299 89.6608C48.0921 89.359 47.6619 89.1807 47.2096 89.1553L33.501 88.3846C32.4848 88.3275 31.6735 87.5162 31.6164 86.5L30.8457 72.7914C30.8202 72.3391 30.642 71.9088 30.3402 71.571L21.1917 61.3326C20.5135 60.5736 20.5135 59.4264 21.1917 58.6674L30.3402 48.429C30.642 48.0912 30.8202 47.6609 30.8457 47.2086L31.6164 33.5C31.6735 32.4838 32.4848 31.6725 33.501 31.6154L47.2096 30.8447C47.6619 30.8193 48.0921 30.641 48.4299 30.3392L58.6684 21.1907Z" fill="#FFD53C"/>
<path d="M63.5762 39.2891C65.9406 41.4015 68.9535 42.6501 72.1191 42.8281L75.1188 42.9946C76.1355 43.0511 76.9476 43.8625 77.0048 44.8792L77.1738 47.8828C77.3518 51.0488 78.6001 54.0612 80.7129 56.4258L82.7172 58.6678C83.3955 59.4265 83.3958 60.5737 82.7179 61.3329L80.7129 63.5781C78.8641 65.6473 77.6778 68.2114 77.291 70.9414L77.1738 72.1211L77.0048 75.1224C76.9475 76.1384 76.1365 76.9495 75.1204 77.0067L72.1191 77.1758C69.349 77.3315 66.694 78.3044 64.4902 79.9609L63.5762 80.7148L61.3309 82.7199C60.5718 83.3978 59.4246 83.3975 58.6658 82.7191L56.4238 80.7148L55.5098 79.9609C53.3059 78.3042 50.6512 77.3315 47.8809 77.1758L44.8772 77.0067C43.8605 76.9495 43.0491 76.1375 42.9927 75.1207L42.8262 72.1211L42.709 70.9414C42.3223 68.2115 41.1357 65.6473 39.2871 63.5781L37.2821 61.3329C36.6042 60.5737 36.6045 59.4265 37.2828 58.6678L39.2871 56.4258C41.3998 54.0613 42.6482 51.0487 42.8262 47.8828L42.9927 44.8808C43.0491 43.8634 43.8614 43.0511 44.8788 42.9946L47.8809 42.8281C51.0468 42.6501 54.0593 41.4018 56.4238 39.2891L58.6658 37.2848C59.4246 36.6064 60.5718 36.6061 61.3309 37.284L63.5762 39.2891Z" fill="#0F8FFF"/>
</svg>
