<svg width="120" height="120" viewBox="0 0 120 120" fill="none" xmlns="http://www.w3.org/2000/svg">
<path d="M47.0185 2.797C55.785 -1.19954 66.1768 -0.912764 74.7112 3.6546L105.289 20.0182C114.392 24.8901 120 33.8934 120 43.6368V76.364C120 86.1073 114.392 95.1107 105.289 99.9826L74.7112 116.346C65.6079 121.218 54.3921 121.218 45.2888 116.346L14.7112 99.9826C5.60832 95.1107 0 86.1073 0 76.364L0 43.6368C0 33.8934 5.60832 24.8901 14.7112 20.0182L45.2888 3.6546L47.0185 2.797Z" fill="#D6E5FE"/>
<path d="M60.0002 30L85.9809 45V74.9999L60.0002 89.9999L34.0195 74.9999V45L60.0002 30Z" fill="#0F8FFF"/>
</svg>
